<svg xmlns="http://www.w3.org/2000/svg" viewBox="0 0 64 64" fill="none">
  <defs>
    <linearGradient id="grad1" x1="0%" y1="0%" x2="100%" y2="100%">
      <stop offset="0%" style="stop-color:#00d4ff;stop-opacity:1" />
      <stop offset="100%" style="stop-color:#7c3aed;stop-opacity:1" />
    </linearGradient>
  </defs>
  <rect x="4" y="18" width="56" height="32" rx="6" fill="#1a1a2e" stroke="url(#grad1)" stroke-width="2"/>
  <rect x="10" y="24" width="6" height="6" rx="1" fill="url(#grad1)"/>
  <rect x="18" y="24" width="6" height="6" rx="1" fill="url(#grad1)" opacity="0.8"/>
  <rect x="26" y="24" width="6" height="6" rx="1" fill="url(#grad1)" opacity="0.6"/>
  <rect x="34" y="24" width="6" height="6" rx="1" fill="url(#grad1)" opacity="0.4"/>
  <rect x="42" y="24" width="6" height="6" rx="1" fill="url(#grad1)" opacity="0.6"/>
  <rect x="50" y="24" width="6" height="6" rx="1" fill="url(#grad1)" opacity="0.8"/>
  <rect x="10" y="32" width="6" height="6" rx="1" fill="url(#grad1)" opacity="0.7"/>
  <rect x="18" y="32" width="6" height="6" rx="1" fill="url(#grad1)" opacity="0.5"/>
  <rect x="26" y="32" width="6" height="6" rx="1" fill="url(#grad1)" opacity="0.9"/>
  <rect x="34" y="32" width="6" height="6" rx="1" fill="url(#grad1)" opacity="0.5"/>
  <rect x="42" y="32" width="6" height="6" rx="1" fill="url(#grad1)" opacity="0.7"/>
  <rect x="50" y="32" width="6" height="6" rx="1" fill="url(#grad1)" opacity="0.9"/>
  <rect x="14" y="40" width="36" height="4" rx="2" fill="url(#grad1)" opacity="0.6"/>
</svg>
